<svg xmlns="http://www.w3.org/2000/svg" xmlns:xlink="http://www.w3.org/1999/xlink" width="42" height="42" id="feedback">
  <defs>
    <linearGradient xlink:href="#a" id="b" x1="992.183" x2="1019.298" y1="516.081" y2="545.959" gradientTransform="translate(-1332.367 316.47)scale(1.34562)" gradientUnits="userSpaceOnUse"></linearGradient>
    <linearGradient id="a">
      <stop offset="0" stop-color="#ff1679"></stop>
      <stop offset="1" stop-color="#ff770b"></stop>
    </linearGradient>
  </defs>
  <g transform="translate(0 -1010.362)">
    <rect width="42" height="42" y="1010.362" fill="url(#b)" rx="8.876" ry="8.876"></rect>
    <path fill="#fff" fill-rule="evenodd" d="M25.487 1018.366a9.771 9.771 0 0 0-9.342 8.13c-.164-.029-.328-.06-.493-.08a8.306 8.306 0 0 0-5.577 1.333 8.323 8.323 0 0 0-3.052 10.18l-1.012 4.83a.5.5 0 0 0 .629.583l4.29-1.238a8.328 8.328 0 0 0 10.345-2.344 8.281 8.281 0 0 0 1.275-2.392 9.763 9.763 0 0 0 7.678-.508l5.134 1.48a.5.5 0 0 0 .63-.582l-1.212-5.76a9.788 9.788 0 0 0-3.576-12.003 9.762 9.762 0 0 0-5.717-1.63zm.032.994a8.767 8.767 0 0 1 5.133 1.467 8.783 8.783 0 0 1 3.154 10.922.5.5 0 0 0-.03.326.5.5 0 0 0 .004.024l1.061 5.053-4.45-1.285a.5.5 0 0 0-.058-.014.5.5 0 0 0-.166-.023.5.5 0 0 0-.224.06 8.765 8.765 0 0 1-7.122.513 8.334 8.334 0 0 0-1.035-6.045h9.707a.5.5 0 1 0 0-1H21.07c-.1-.118-.195-.239-.301-.353a8.299 8.299 0 0 0-3.649-2.278 8.778 8.778 0 0 1 8.398-7.37zm-5.06 4a.5.5 0 0 0 .05 1h10.98a.5.5 0 1 0 0-1H20.51a.5.5 0 0 0-.05 0zm0 3a.5.5 0 0 0 .05 1h10.98a.5.5 0 1 0 0-1H20.51a.5.5 0 0 0-.05 0zm-5.554 1a7.314 7.314 0 0 1 5.131 2.328 7.316 7.316 0 0 1 .446 9.461 7.32 7.32 0 0 1-9.264 1.983.5.5 60.003 0 0-.397-.035.5.5 0 0 0-.04.01l-3.62 1.045.864-4.127a.5.5 0 0 0 0-.01.5.5 60.003 0 0-.024-.338 7.315 7.315 0 0 1 2.627-9.1 7.306 7.306 0 0 1 4.277-1.22zm-4.447 4a.5.5 0 0 0 .051 1h8.984a.5.5 0 1 0 0-1H10.51a.5.5 0 0 0-.05 0zm13.783 1a.5.5 0 0 0 .051 1h2.404a.5.5 0 1 0 0-1h-2.404a.5.5 0 0 0-.05 0zm-13.783 2a.5.5 0 0 0 .051 1h8.984a.5.5 0 1 0 0-1H10.51a.5.5 0 0 0-.05 0zm-.008 3a.5.5 0 0 0 .051 1h4a.5.5 0 1 0 0-1h-4a.5.5 0 0 0-.05 0z" color="#000" font-family="sans-serif" font-weight="400" overflow="visible" style="line-height:normal;text-indent:0;text-align:start;text-decoration-line:none;text-decoration-style:solid;text-decoration-color:#000;text-transform:none;block-progression:tb;isolation:auto;mix-blend-mode:normal"></path>
  </g>
</svg>
